<svg xmlns="http://www.w3.org/2000/svg" width="494" height="189" fill="none"><g fill="#fff" clip-path="url(#a)"><path d="m143.014 117.827-1.231-6.505h-9.259l-1.23 6.505h-7.97l7.911-41.02h12.13l7.501 41.02h-7.852Zm-5.978-33.402-2.285 13.654-1.289 6.973h7.325l-1.348-6.973-2.285-13.654h-.118Zm16.95 3.457h6.27l.879 2.11c.859-.781 1.66-1.328 2.402-1.64.782-.313 1.934-.47 3.458-.47h5.274c1.641 1.602 2.93 3.673 3.867 6.212.938 2.54 1.407 5.333 1.407 8.38 0 6.524-1.954 11.642-5.86 15.353h-4.981c-2.071 0-3.712-.547-4.923-1.641v10.431h-7.793V87.882Zm7.793 23.792h5.626c1.445-2.461 2.168-5.45 2.168-8.966 0-3.516-.742-6.407-2.227-8.673h-5.567v17.639Zm19.961-23.792h6.271l.879 2.11c.859-.781 1.66-1.328 2.402-1.64.782-.313 1.934-.47 3.458-.47h5.274c1.64 1.602 2.93 3.673 3.867 6.212.938 2.54 1.407 5.333 1.407 8.38 0 6.524-1.954 11.642-5.86 15.353h-4.981c-2.071 0-3.712-.547-4.923-1.641v10.431h-7.794V87.882Zm7.794 23.792h5.626c1.445-2.461 2.168-5.45 2.168-8.966 0-3.516-.742-6.407-2.227-8.673h-5.567v17.639Zm31.623-.645h10.313v6.798h-14.884c-2.578-2.422-4.532-5.489-5.86-9.2a33.68 33.68 0 0 1-1.992-11.427c0-3.946.742-7.735 2.226-11.369 1.485-3.633 3.692-6.64 6.622-9.024h13.888v7.032h-10.313c-1.055 1.211-1.973 3.164-2.754 5.86-.743 2.696-1.114 5.274-1.114 7.735 0 2.461.371 5.04 1.114 7.735.781 2.696 1.699 4.649 2.754 5.86Zm14.378 6.798V87.882h5.567l1.465 3.165c1.562-2.11 3.535-3.165 5.918-3.165h2.286v7.853h-7.442v22.092h-7.794Zm31.575-13.537h-6.27c-.821 1.016-1.231 2.286-1.231 3.809 0 1.524.43 2.716 1.289 3.575h6.212v-7.384Zm-12.599-16.408h14.533c2.344 1.407 3.887 3.028 4.629 4.864.743 1.797 1.114 4.258 1.114 7.384v8.79c0 3.242.078 6.211.234 8.907h-6.68l-1.055-2.11c-1.524 1.407-3.672 2.11-6.446 2.11h-3.692c-3.321-2.188-4.981-5.333-4.981-9.435 0-4.141 1.699-7.403 5.098-9.786h5.509c1.523 0 2.949.469 4.277 1.407v-2.93c0-1.524-.664-2.54-1.992-3.048h-10.548v-6.153Zm32.596-11.075h8.438v6.153h-5.274c-1.328.82-1.992 2.461-1.992 4.922h6.094v6.153h-6.094v23.792h-7.794V94.035h-3.223v-6.153h3.223c0-5.078 2.207-8.77 6.622-11.075Zm12.046 27.952V94.035h-4.043v-6.153h4.043v-8.145h7.794v8.145h4.805v6.153h-4.805v12.599c0 2.383.41 4.063 1.231 5.04h3.574v6.153h-8.321c-2.07-1.914-3.321-3.985-3.75-6.212-.352-1.875-.528-4.16-.528-6.856Zm29.462-10.724h-4.395c-.586.704-1.074 1.68-1.465 2.93-.352 1.25-.528 2.462-.528 3.634h8.38c.078-1.172-.078-2.383-.469-3.634-.39-1.289-.898-2.266-1.523-2.93Zm7.969 17.639v6.153H321.7c-2.735-1.836-4.668-4.102-5.801-6.798-1.094-2.734-1.641-5.488-1.641-8.262 0-6.407 2.422-11.369 7.266-14.885h9.493c2.618 1.915 4.395 3.946 5.333 6.095.938 2.148 1.406 4.317 1.406 6.504 0 2.188-.175 4.063-.527 5.626h-14.591c.117.899.449 1.934.996 3.106.586 1.133 1.211 1.953 1.875 2.461h11.075Zm5.163 6.153V87.882h5.567l1.465 3.165c1.563-2.11 3.536-3.165 5.919-3.165h2.285v7.853h-7.442v22.092h-7.794Zm20.955-29.945h12.951v6.153h-9.142l5.567 8.263c2.501 3.555 3.887 5.997 4.161 7.325.156.625.234 1.27.234 1.934 0 2.774-1.035 4.864-3.106 6.27h-14.943v-6.153h10.724l-6.27-9.2c-.273-.43-.703-1.035-1.289-1.817-.547-.781-.977-1.406-1.289-1.875a16.34 16.34 0 0 1-.645-1.113 22.522 22.522 0 0 0-.469-.88 6.027 6.027 0 0 1-.41-.996c-.156-.742-.234-1.347-.234-1.816 0-2.852 1.387-4.883 4.16-6.095ZM98.555 0H15.609C7.002 0 0 7.002 0 15.608v157.149c0 8.607 7.003 15.609 15.609 15.609h82.946c8.607 0 15.608-7.003 15.608-15.609V15.608C114.163 7.002 107.162 0 98.555 0Zm4.002 172.758a4.007 4.007 0 0 1-4.002 4.003H15.609a4.008 4.008 0 0 1-4.003-4.003V15.608a4.008 4.008 0 0 1 4.003-4.002h14.282c.486 4.001 3.893 7.102 8.024 7.102h38.33a8.08 8.08 0 0 0 8.024-7.102h14.287a4.007 4.007 0 0 1 4.002 4.002l-.001 157.15Z"/><path fill-rule="evenodd" d="M85.729 130.095c2.627 2.637 4.25.762 6.408-1.391 2.157-2.153 4.028-3.781 1.4-6.413 0 0-36.628-36.594-45.674-45.615l-7.809 7.804 45.675 45.615ZM25.511 90.834l3.038-2.99s-1.34-3.676.624-5.438c1.964-1.761 5.28-.673 5.28-.673l10.664-10.307s-.747-5.36.242-6.35c.99-.989 12.05-6.378 13.119-7.456l-2.272-2.272s-15.479 1.86-17.156 3.533c-.985.99-8.353 8.433-13.608 13.688 0 0 1.316 3.756-.416 5.488-1.737 1.737-5.646.495-5.646.495a2431.707 2431.707 0 0 1-3.083 3.077c-1.301 1.312-.534 3.153 1.064 4.751l3.395 3.395c1.608 1.603 3.454 2.36 4.755 1.059Zm47.926-7.424c5.33 2.53 12.015 1.753 16.439-2.671a14.382 14.382 0 0 0 4.042-12.525l-7.526 7.517-6.403 1.588-7.235-7.135 1.697-6.616 7.458-7.364c-4.42-.722-9.413.322-12.827 3.741-4.429 4.43-5.032 11.278-2.504 16.612l-4.919 4.914c2.163 2.153 4.474 4.464 6.869 6.854l4.909-4.914Zm-21.283 22.784-7.448-7.443-6.473 6.478a4.06 4.06 0 0 0-.895 1.316c-.381-.149-.594-.153-.728-.099-1.237-.411-2.543-.688-3.914-.688-6.834 0-12.37 5.468-12.37 12.218s5.536 12.218 12.37 12.218 12.371-5.468 12.371-12.218c0-1.401-.292-2.727-.722-3.979-.025-.118-.03-.227-.1-.401.516-.212 1-.499 1.426-.93l6.483-6.472Zm-19.458 18.898c-4.018 0-7.27-3.182-7.27-7.116 0-3.934 3.247-7.116 7.27-7.116s7.27 3.182 7.27 7.116c0 3.934-3.252 7.116-7.27 7.116Z" clip-rule="evenodd"/></g><defs><clipPath id="a"><path fill="#fff" d="M0 0h493.481v188.366H0z"/></clipPath></defs></svg>